<?xml version="1.0" encoding="UTF-8"?>
<svg width="32" height="32" viewBox="0 0 1024 1024" xmlns="http://www.w3.org/2000/svg">
  <defs>
    <!-- 蓝紫渐变定义 -->
    <linearGradient id="gradient" x1="0%" y1="0%" x2="100%" y2="100%">
      <stop offset="0%" stop-color="#13a4e4" />
      <stop offset="100%" stop-color="#6e12de" />
    </linearGradient>
    <!-- 阴影滤镜 -->
    <filter id="shadow" x="-20%" y="-20%" width="140%" height="140%">
      <feDropShadow dx="2" dy="2" stdDeviation="2" flood-color="rgba(0,0,0,0.3)" />
    </filter>
  </defs>
  <path 
    d="M160 320c0 26.6 4.6 52 13 75.6 7.8 21.6-0.8 45.6-20.4 57.4l-39 23.4-24.2-40.6 24.2 40.4c-11 6.6-17.6 18.4-17.6 31.2 0 20.2 16.4 36.4 36.4 36.4H497.8c12.6 0 24.6 5 33.6 13.6l76.6 75.2V592c0-26.6 21.4-48 48-48h32c97.2 0 176 78.8 176 176v21.2c39.8-42.4 64-99.2 64-162 0-121.6-44.8-232.4-118.8-317.4-14.4-16.4-15.8-40.6-3.4-58.6 20.8-30.6 46.8-71 62.8-103.8-54.6 8-116.8 28.6-168.4 49.2-12.8 5-27 4.4-39.2-1.6C595.8 114.4 522.4 96 444.6 96H384C260.2 96 160 196.2 160 320z m395.4 496H688c44.2 0 80-35.8 80-80v-16c0-38.8-27.4-71-64-78.4v3.8c0 50-40.6 90.6-90.6 90.6-23.6 0-46.4-9.2-63.4-25.8L478.2 640H132.4C59.2 640 0 580.8 0 507.6 0 461 24.4 418 64.2 394l7.4-4.4C66.6 367.2 64 343.8 64 320 64 143.2 207.2 0 384 0h60.6c85.4 0 166.6 18.6 239.8 51.8C749.8 27 837.4 0 912 0c15.6 0 35.8 4.8 50.4 22.6 13.4 16.2 15 34.8 14.6 46.4-0.8 22.6-10.4 46.8-19.4 66.2-14 30-34.2 63.6-52.8 92.4 74.8 97.4 119.2 219.4 119.2 351.8 0 183.6-149 332.6-332.6 332.6h-136c-39.8 69-113.6 112-194 112H352c-11 0-21.4-5.8-27.2-15.2s-6.4-21.2-1.4-31.2l56.8-113.6-56.8-113.6c-5-10-4.4-21.8 1.4-31.2s16.2-15.2 27.2-15.2h9.4c80.4 0 154.2 43 194 112zM272 320a48 48 0 1 1 96 0 48 48 0 1 1-96 0z"
    fill="url(#gradient)"
    filter="url(#shadow)"
  />
</svg>