<?xml version="1.0" standalone="no"?><!DOCTYPE svg PUBLIC "-//W3C//DTD SVG 1.1//EN" "http://www.w3.org/Graphics/SVG/1.1/DTD/svg11.dtd"><svg t="1753367789420" class="icon" viewBox="0 0 1045 1024" version="1.1" xmlns="http://www.w3.org/2000/svg" p-id="5744" xmlns:xlink="http://www.w3.org/1999/xlink" width="32.65625" height="32"><path d="M640 320c23.466667 0 42.666667 19.2 42.666667 42.666667v384c0 23.466667-19.2 42.666667-42.666667 42.666666H209.066667l-136.533334 136.533334c-8.533333 8.533333-19.2 12.8-29.866666 12.8-6.4 0-10.666667 0-17.066667-4.266667-14.933333-6.4-25.6-21.333333-25.6-38.4V362.666667c0-23.466667 19.2-42.666667 42.666667-42.666667h597.333333z m-42.666667 384V405.333333H85.333333v388.266667l76.8-76.8c8.533333-8.533333 19.2-12.8 29.866667-12.8h405.333333z" fill="#2c2c2c" p-id="5745"></path><path d="M981.333333 85.333333H384c-23.466667 0-42.666667 19.2-42.666667 42.666667v106.666667c0 23.466667 19.2 42.666667 42.666667 42.666666s42.666667-19.2 42.666667-42.666666V170.666667h512v388.266666l-76.8-76.8c-8.533333-8.533333-19.2-12.8-29.866667-12.8h-64c-23.466667 0-42.666667 19.2-42.666667 42.666667s19.2 42.666667 42.666667 42.666667h46.933333l136.533334 136.533333c8.533333 8.533333 19.2 12.8 29.866666 12.8 6.4 0 10.666667 0 17.066667-4.266667 14.933333-6.4 25.6-21.333333 25.6-38.4V128c0-23.466667-19.2-42.666667-42.666667-42.666667" fill="#2c2c2c" p-id="5746"></path></svg>