<?xml version="1.0" standalone="no"?><!DOCTYPE svg PUBLIC "-//W3C//DTD SVG 1.1//EN" "http://www.w3.org/Graphics/SVG/1.1/DTD/svg11.dtd"><svg t="1753367831947" class="icon" viewBox="0 0 1024 1024" version="1.1" xmlns="http://www.w3.org/2000/svg" p-id="6001" xmlns:xlink="http://www.w3.org/1999/xlink" width="32" height="32"><path d="M131.63008 707.87072C79.58528 646.36928 51.2 571.61216 51.2 494.97088c0-195.8656 180.72576-355.77344 402.13504-355.77344 205.32736 0 377.53344 136.25344 400.24576 316.032 1.88928 13.25056-7.57248 24.6016-20.8128 26.49088-13.25056 1.8944-24.6016-7.56736-26.50112-20.8128-19.8656-157.07136-171.25888-274.40128-352.93184-274.40128-195.8656 0-354.82624 138.14272-354.82624 308.46464 0 70.96832 26.49088 137.19552 77.58848 193.01888 5.67808 6.6304 7.57248 16.09216 4.73088 24.61184-9.46176 26.49088-23.6544 48.25088-41.63584 67.17952 27.4432 0 63.39584-5.67808 96.512-25.5488 7.57248-4.73088 16.08704-4.73088 23.6544 0 57.71776 33.12128 124.9024 50.1504 193.9712 50.1504 37.85216 0 74.75712-4.73088 110.70464-15.13984 12.29824-3.77856 25.5488 3.77856 29.33248 16.08192 3.7888 12.29824-3.77856 25.5488-16.08192 29.3376-39.74144 11.35104-81.37728 17.01888-123.008 17.01888-72.8576 0-143.82592-17.01888-205.32736-50.14016-56.77056 29.33248-116.38272 27.43808-147.60448 22.71232-14.19264-1.88928-25.5488-12.29824-28.38528-26.49088-2.8416-14.19776 2.8416-28.3904 15.13984-35.95776 17.03424-13.25568 33.11616-31.22688 43.53024-53.93408z m296.15616-212.89984c0 14.19264 11.35616 25.5488 25.5488 25.5488s25.5488-11.35616 25.5488-25.5488-11.35616-25.5488-25.5488-25.5488-25.5488 11.35616-25.5488 25.5488z m-109.75744 0c0 14.19264 11.35104 25.5488 25.54368 25.5488s25.5488-11.35616 25.5488-25.5488-11.35616-25.5488-25.5488-25.5488-25.54368 11.35616-25.54368 25.5488z m219.52 0a25.4464 25.4464 0 0 0 25.5488 25.5488c14.18752 0 25.54368-11.35616 25.54368-25.5488s-11.35616-25.5488-25.54368-25.5488a25.4464 25.4464 0 0 0-25.5488 25.5488z m435.2512 198.7072c0 105.96864-86.10304 191.11936-191.13472 191.11936s-191.13472-86.09792-191.13472-191.11936c0-105.0368 86.10304-191.13984 191.13472-191.13984S972.8 587.6992 972.8 693.67808z m-47.3088 0c0-79.488-64.33792-143.83104-143.82592-143.83104-79.47264 0-143.82592 64.33792-143.82592 143.83104 0 79.46752 64.34816 143.8208 143.82592 143.8208 79.48288 0 143.82592-64.34816 143.82592-143.8208z m-85.16608-23.65952h-35.00544v-35.01056c0-13.25056-10.40896-23.65952-23.6544-23.65952s-23.6544 9.472-23.6544 22.72256v35.01056h-35.00544c-13.25568 0-23.65952 10.39872-23.65952 23.64928s10.40384 23.64928 23.65952 23.64928h35.00544v35.0208c0 13.24032 10.40896 23.64928 23.6544 23.64928s23.6544-10.40896 23.6544-23.64928v-35.0208h35.00544c13.25568 0 23.65952-10.39872 23.65952-23.64928s-10.40384-22.71232-23.65952-22.71232z" p-id="6002"></path></svg>