<?xml version="1.0" standalone="no"?><!DOCTYPE svg PUBLIC "-//W3C//DTD SVG 1.1//EN" "http://www.w3.org/Graphics/SVG/1.1/DTD/svg11.dtd"><svg t="1753367496296" class="icon" viewBox="0 0 1024 1024" version="1.1" xmlns="http://www.w3.org/2000/svg" p-id="16757" xmlns:xlink="http://www.w3.org/1999/xlink" width="32" height="32"><path d="M752.868413 1024a102.839339 102.839339 0 0 1-82.36531-41.161328l-64.151955-85.521723-110.431791 75.284709a102.540759 102.540759 0 0 1-57.967093 17.87212 102.114217 102.114217 0 0 1-72.768109-30.156537 102.242179 102.242179 0 0 1-30.156538-72.768109V698.974799H117.789645a103.095264 103.095264 0 0 1-102.967302-102.967301c0-35.744241 18.085392-68.374724 48.412547-87.313201L851.612946 15.867372c16.336569-10.237014 35.189736-15.654101 54.426792-15.654101 35.786895 0 68.460032 18.042738 87.398509 48.284584 13.777315 22.052235 18.725205 48.241929 13.862624 73.791811l-153.299288 817.724163A102.967301 102.967301 0 0 1 752.868413 1024z m-31.222893-79.550131a38.772691 38.772691 0 0 0 31.094931 15.526138c18.767859 0 34.933811-13.350773 38.431457-31.777398l153.299288-817.766818a38.858 38.858 0 0 0 0.511851-11.30337L513.663515 667.069438l207.982005 277.380431zM398.966301 887.549132a38.815346 38.815346 0 0 0 60.867581 32.161286l107.915191-73.57854-110.175865-147.199733H398.966301v188.616987zM885.523056 70.123547L97.144999 562.950473a39.028617 39.028617 0 0 0 20.6873 72.042987h339.868871L887.527804 68.929229l-2.004748 1.194318z" p-id="16758"></path></svg>